<?xml version="1.0" encoding="UTF-8" standalone="no"?>
<svg width="1280" height="640" viewBox="0 0 1280 640" fill="none" xmlns="http://www.w3.org/2000/svg">
  <!-- Background -->
  <rect width="1280" height="640" fill="#0D1117"/>

  <!-- Gradient overlay -->
  <rect width="1280" height="640" fill="url(#paint0_linear)"/>

  <!-- Logo -->
  <g transform="translate(120, 160) scale(0.5)">
    <!-- Background -->
    <rect width="512" height="512" rx="128" fill="#2196F3"/>

    <!-- j e l l i c u l e text -->
    <text x="256" y="280" font-family="monospace" font-size="48" font-weight="bold" text-anchor="middle" fill="white">j e l l i c u l e</text>
  </g>

  <!-- Title -->
  <text x="400" y="200" font-family="monospace" font-size="72" font-weight="bold" fill="white">j e l l i c u l e</text>

  <!-- Description -->
  <text x="400" y="280" font-family="sans-serif" font-size="36" fill="#8B949E">A modern web component library</text>

  <!-- Features -->
  <g transform="translate(400, 340)">
    <!-- Feature 1 -->
    <circle cx="12" cy="12" r="8" fill="#2196F3"/>
    <text x="36" y="20" font-family="sans-serif" font-size="24" fill="white">Pure web components with no framework dependencies</text>

    <!-- Feature 2 -->
    <circle cx="12" cy="52" r="8" fill="#2196F3"/>
    <text x="36" y="60" font-family="sans-serif" font-size="24" fill="white">Docker-based development environment</text>

    <!-- Feature 3 -->
    <circle cx="12" cy="92" r="8" fill="#2196F3"/>
    <text x="36" y="100" font-family="sans-serif" font-size="24" fill="white">Progressive Web App (PWA) ready</text>

    <!-- Feature 4 -->
    <circle cx="12" cy="132" r="8" fill="#2196F3"/>
    <text x="36" y="140" font-family="sans-serif" font-size="24" fill="white">Comprehensive documentation and examples</text>
  </g>

  <!-- GitHub link -->
  <g transform="translate(400, 520)">
    <path d="M16 0C7.16 0 0 7.16 0 16C0 23.08 4.58 29.06 10.94 31.18C11.74 31.32 12.04 30.84 12.04 30.42C12.04 30.04 12.02 28.78 12.02 27.44C8 28.18 6.96 26.46 6.64 25.56C6.46 25.1 5.68 23.68 5 23.3C4.44 23 3.64 22.26 4.98 22.24C6.24 22.22 7.14 23.4 7.44 23.88C8.88 26.3 11.18 25.62 12.1 25.2C12.24 24.16 12.66 23.46 13.12 23.06C9.56 22.66 5.84 21.28 5.84 15.16C5.84 13.42 6.46 11.98 7.48 10.86C7.32 10.46 6.76 8.82 7.64 6.62C7.64 6.62 8.98 6.2 12.04 8.26C13.32 7.9 14.68 7.72 16.04 7.72C17.4 7.72 18.76 7.9 20.04 8.26C23.1 6.18 24.44 6.62 24.44 6.62C25.32 8.82 24.76 10.46 24.6 10.86C25.62 11.98 26.24 13.4 26.24 15.16C26.24 21.3 22.5 22.66 18.94 23.06C19.52 23.56 20.02 24.52 20.02 26.02C20.02 28.16 20 29.88 20 30.42C20 30.84 20.3 31.34 21.1 31.18C27.42 29.06 32 23.06 32 16C32 7.16 24.84 0 16 0V0Z" fill="white"/>
    <text x="48" y="24" font-family="sans-serif" font-size="24" fill="white">github.com/jellicule/jellicule</text>
  </g>

  <!-- Gradients -->
  <defs>
    <linearGradient id="paint0_linear" x1="0" y1="0" x2="1280" y2="640" gradientUnits="userSpaceOnUse">
      <stop stop-color="#2196F3" stop-opacity="0.2"/>
      <stop offset="1" stop-color="#0D1117" stop-opacity="0"/>
    </linearGradient>
  </defs>
</svg>
