<?xml version="1.0" encoding="UTF-8" standalone="no"?>
<svg width="1280" height="640" viewBox="0 0 1280 640" fill="none" xmlns="http://www.w3.org/2000/svg">
  <!-- Background -->
  <rect width="1280" height="640" fill="#0D1117"/>
  
  <!-- GitHub repository template style -->
  <g>
    <!-- Left sidebar -->
    <rect x="0" y="0" width="120" height="640" fill="#161B22"/>
    
    <!-- Top bar -->
    <rect x="120" y="0" width="1160" height="60" fill="#161B22"/>
    
    <!-- Repository name bar -->
    <rect x="120" y="60" width="1160" height="60" fill="#0D1117"/>
    <text x="150" y="100" font-family="sans-serif" font-size="24" font-weight="bold" fill="#E6EDF3">jellicule / jellicule</text>
    
    <!-- Tab bar -->
    <rect x="120" y="120" width="1160" height="50" fill="#161B22"/>
    <rect x="150" y="120" width="100" height="50" fill="#1F6FEB"/>
    <text x="180" y="150" font-family="sans-serif" font-size="16" fill="#E6EDF3">Code</text>
    
    <!-- Main content area -->
    <rect x="120" y="170" width="1160" height="470" fill="#0D1117"/>
  </g>
  
  <!-- Repository content -->
  <g transform="translate(640, 320)">
    <!-- Central content -->
    <rect x="-400" y="-150" width="800" height="300" rx="8" fill="#161B22"/>
    
    <!-- Repository name -->
    <text x="0" y="-100" font-family="monospace" font-size="72" font-weight="bold" fill="#E6EDF3" text-anchor="middle">j e l l i c u l e</text>
    
    <!-- Repository description -->
    <text x="0" y="-40" font-family="sans-serif" font-size="32" fill="#8B949E" text-anchor="middle">A modern web component library</text>
    
    <!-- Repository stats -->
    <g transform="translate(-300, 40)">
      <!-- Stars -->
      <path d="M8 0.25C8.14 0.25 8.27 0.31 8.35 0.42L10.21 2.9L13 3.5C13.14 3.53 13.25 3.63 13.29 3.76C13.33 3.9 13.3 4.05 13.21 4.15L11.25 6.05L11.75 8.93C11.77 9.07 11.71 9.2 11.59 9.29C11.47 9.37 11.32 9.38 11.19 9.31L8.5 7.88L5.81 9.31C5.68 9.38 5.53 9.37 5.41 9.29C5.29 9.2 5.23 9.07 5.25 8.93L5.75 6.05L3.79 4.15C3.7 4.05 3.67 3.9 3.71 3.76C3.75 3.63 3.86 3.53 4 3.5L6.79 2.9L8.65 0.42C8.73 0.31 8.86 0.25 9 0.25H8Z" transform="scale(2)" fill="#E3B341"/>
      <text x="30" y="8" font-family="sans-serif" font-size="24" fill="#E6EDF3">Stars: 1.2k</text>
    </g>
    
    <g transform="translate(0, 40)">
      <!-- Forks -->
      <path d="M5 5.372v4.256C5 10.38 5.448 11 6 11h4c.552 0 1-.62 1-1.372V5.372C11 4.62 10.552 4 10 4H6c-.552 0-1 .62-1 1.372zM14 4c0-1.657-1.343-3-3-3S8 2.343 8 4v1h6V4z" transform="scale(1.5)" fill="#8B949E"/>
      <text x="30" y="8" font-family="sans-serif" font-size="24" fill="#E6EDF3">Forks: 234</text>
    </g>
    
    <g transform="translate(300, 40)">
      <!-- Issues -->
      <path d="M8 1.5C4.41 1.5 1.5 4.41 1.5 8C1.5 11.59 4.41 14.5 8 14.5C11.59 14.5 14.5 11.59 14.5 8C14.5 4.41 11.59 1.5 8 1.5ZM8 13C5.24 13 3 10.76 3 8C3 5.24 5.24 3 8 3C10.76 3 13 5.24 13 8C13 10.76 10.76 13 8 13ZM7 10H9V12H7V10ZM7 4H9V9H7V4Z" transform="scale(1.5)" fill="#8B949E"/>
      <text x="30" y="8" font-family="sans-serif" font-size="24" fill="#E6EDF3">Issues: 15</text>
    </g>
    
    <!-- Language stats -->
    <g transform="translate(-300, 100)">
      <circle cx="8" cy="8" r="8" fill="#2196F3"/>
      <text x="24" y="12" font-family="sans-serif" font-size="20" fill="#E6EDF3">JavaScript 78.2%</text>
    </g>
    
    <g transform="translate(0, 100)">
      <circle cx="8" cy="8" r="8" fill="#563D7C"/>
      <text x="24" y="12" font-family="sans-serif" font-size="20" fill="#E6EDF3">CSS 15.5%</text>
    </g>
    
    <g transform="translate(300, 100)">
      <circle cx="8" cy="8" r="8" fill="#E34C26"/>
      <text x="24" y="12" font-family="sans-serif" font-size="20" fill="#E6EDF3">HTML 6.3%</text>
    </g>
  </g>
</svg>
